<svg xmlns="http://www.w3.org/2000/svg" viewBox="100 285 510 150">
  <g>
    <g>
      <g>
        <path fill="#fff" d="M270.23,339.94c-3.89,0-7.02-1.02-9.38-3.05c-2.37-2.03-3.55-4.79-3.55-8.26h5.71 c0,1.85,0.67,3.3,2.02,4.35c1.35,1.05,3.06,1.58,5.15,1.58c1.9,0,3.5-0.46,4.81-1.39c1.31-0.92,1.96-2.15,1.96-3.68 c0-0.33-0.03-0.65-0.1-0.94c-0.06-0.29-0.18-0.57-0.33-0.83c-0.16-0.25-0.31-0.48-0.45-0.68s-0.37-0.39-0.68-0.59 c-0.31-0.19-0.57-0.35-0.77-0.49c-0.2-0.14-0.51-0.28-0.94-0.43c-0.43-0.15-0.77-0.27-1-0.36c-0.24-0.09-0.62-0.2-1.14-0.33 c-0.52-0.14-0.9-0.23-1.15-0.29c-0.25-0.06-0.66-0.16-1.23-0.3c-2.92-0.7-5.02-1.36-6.31-1.98c-2.9-1.4-4.53-3.55-4.88-6.43 c-0.06-0.45-0.1-0.91-0.1-1.39c0-3.08,1.08-5.48,3.24-7.22c2.16-1.74,5.08-2.61,8.76-2.61c3.7,0,6.59,0.94,8.69,2.82 c2.1,1.88,3.14,4.45,3.14,7.7h-5.55c0-1.66-0.6-2.95-1.81-3.88c-1.2-0.93-2.74-1.4-4.6-1.4c-1.79,0-3.27,0.39-4.46,1.16 c-1.19,0.77-1.78,1.84-1.78,3.19c0,0.51,0.08,0.97,0.25,1.39c0.17,0.42,0.45,0.79,0.84,1.11c0.39,0.33,0.77,0.6,1.15,0.82 c0.37,0.22,0.91,0.45,1.6,0.67c0.69,0.22,1.27,0.4,1.75,0.53c0.47,0.13,1.14,0.3,2,0.5c2.95,0.73,5.08,1.41,6.38,2.03 c2.98,1.45,4.69,3.63,5.12,6.53c0.08,0.53,0.12,1.08,0.12,1.65c0,2.22-0.56,4.13-1.69,5.74s-2.62,2.81-4.48,3.59 C274.68,339.55,272.58,339.94,270.23,339.94z"/>
        <path fill="#fff" d="M300.4,334.49h3.01v4.92h-4.04c-2.9,0-5.19-0.84-6.86-2.52c-1.67-1.68-2.51-3.98-2.51-6.9v-12.36h-4.73 v-1.05l9.2-9.78h0.93v6.17h7.87v4.66h-7.82v11.93c0,1.58,0.43,2.79,1.28,3.65C297.59,334.06,298.81,334.49,300.4,334.49z"/>
        <path fill="#fff" d="M321.37,312.83h2.34v5.14h-2.87c-2.23,0-3.91,0.62-5.04,1.86c-1.13,1.24-1.7,3.07-1.7,5.47v14.11h-5.43 v-26.44h3.68l0.91,3.61C315.15,314.08,317.85,312.83,321.37,312.83z"/>
        <path fill="#fff" d="M349.34,312.95l4.18,0.02v26.42h-4.38l-0.53-3.2c-1.21,1.23-2.64,2.18-4.28,2.86s-3.41,1.02-5.31,1.02 c-2.58,0-4.92-0.6-7.03-1.81c-2.1-1.2-3.75-2.87-4.95-5s-1.79-4.49-1.79-7.09c0-2.61,0.6-4.98,1.79-7.09 c1.2-2.11,2.85-3.77,4.95-4.96c2.1-1.2,4.45-1.79,7.03-1.79c1.91,0,3.7,0.34,5.36,1.03c1.66,0.69,3.09,1.66,4.3,2.92 L349.34,312.95z M333.25,332.37c1.64,1.65,3.71,2.47,6.19,2.47s4.55-0.82,6.18-2.47c1.63-1.65,2.45-3.72,2.45-6.2 s-0.82-4.55-2.45-6.19c-1.63-1.64-3.69-2.46-6.18-2.46s-4.55,0.83-6.19,2.47s-2.46,3.71-2.46,6.18 C330.79,328.66,331.61,330.72,333.25,332.37z"/>
        <path fill="#fff" d="M373.06,334.49h3.01v4.92h-4.04c-2.9,0-5.19-0.84-6.86-2.52c-1.67-1.68-2.51-3.98-2.51-6.9v-12.36h-4.73 v-1.05l9.2-9.78h0.93v6.17h7.87v4.66h-7.82v11.93c0,1.58,0.43,2.79,1.28,3.65C370.24,334.06,371.46,334.49,373.06,334.49z"/>
        <path fill="#fff" d="M406.17,326.26c0,0.51-0.04,1.1-0.12,1.77h-21.47c0.33,2.14,1.23,3.83,2.68,5.07s3.26,1.86,5.43,1.86 c1.56,0,2.96-0.34,4.2-1.03c1.23-0.69,2.2-1.63,2.9-2.85h5.74c-1.05,2.79-2.72,4.98-5,6.57s-4.89,2.39-7.84,2.39 c-3.86,0-7.08-1.33-9.68-3.98s-3.9-5.95-3.9-9.89c0-2.6,0.59-4.96,1.77-7.08c1.18-2.12,2.8-3.78,4.88-4.98 c2.07-1.2,4.38-1.81,6.93-1.81c2.63,0,4.98,0.63,7.05,1.88c2.07,1.25,3.66,2.93,4.77,5.04 C405.62,321.36,406.17,323.7,406.17,326.26z M392.69,317.23c-2.02,0-3.75,0.57-5.16,1.72c-1.42,1.15-2.35,2.71-2.8,4.69h15.99 c-0.49-2.01-1.45-3.58-2.88-4.71C396.41,317.79,394.7,317.23,392.69,317.23z"/>
        <path fill="#fff" d="M433.57,312.97h3.56v22.98c0,4.22-1.18,7.54-3.53,9.96c-2.35,2.42-5.57,3.62-9.67,3.62 c-3.38,0-6.21-0.82-8.5-2.47c-2.29-1.65-3.76-3.93-4.43-6.83h5.43c0.49,1.4,1.43,2.5,2.81,3.3c1.38,0.8,2.93,1.2,4.65,1.2 c2.33,0,4.23-0.72,5.7-2.16c1.47-1.44,2.21-3.4,2.21-5.87v-1.22c-2.46,2.12-5.37,3.18-8.75,3.18c-2.42,0-4.63-0.58-6.62-1.73 c-1.99-1.16-3.56-2.74-4.71-4.75s-1.72-4.23-1.72-6.67c0-2.42,0.57-4.64,1.71-6.66s2.71-3.61,4.71-4.77s4.21-1.75,6.63-1.75 c1.9,0,3.68,0.36,5.34,1.08c1.67,0.72,3.1,1.71,4.32,2.99L433.57,312.97z M417.84,331.3c1.55,1.54,3.49,2.31,5.83,2.31 s4.28-0.77,5.81-2.29c1.53-1.53,2.29-3.47,2.29-5.81c0-2.34-0.76-4.28-2.28-5.81c-1.52-1.53-3.46-2.29-5.82-2.29 c-2.34,0-4.29,0.77-5.83,2.31c-1.55,1.54-2.32,3.47-2.32,5.8S416.29,329.76,417.84,331.3z"/>
        <path fill="#fff" d="M444.78,308.88v-5.62h5.62v5.62H444.78z M444.88,339.41v-26.44h5.43v26.44H444.88z"/>
        <path fill="#fff" d="M469.93,340.06c-2.58,0-4.93-0.61-7.05-1.82c-2.12-1.21-3.78-2.88-4.99-5s-1.8-4.48-1.8-7.08 c0-2.6,0.6-4.95,1.8-7.06c1.2-2.11,2.87-3.77,4.99-4.97c2.12-1.2,4.48-1.81,7.08-1.81c3.25,0,6.06,0.92,8.44,2.75 c2.38,1.83,3.93,4.27,4.66,7.32h-5.38c-0.7-1.51-1.74-2.71-3.11-3.57c-1.37-0.87-2.92-1.3-4.64-1.3c-2.38,0-4.36,0.83-5.94,2.49 c-1.59,1.66-2.38,3.71-2.38,6.17s0.8,4.52,2.39,6.19s3.57,2.51,5.93,2.51c1.74,0,3.28-0.45,4.63-1.34 c1.35-0.89,2.38-2.14,3.1-3.75h5.47c-0.73,3.09-2.3,5.58-4.71,7.46C476.01,339.12,473.18,340.06,469.93,340.06z"/>
      </g>
      <g>
        <path fill="#F2AF30" d="M261.41,401.97c-2.08,2.71-3.09,5.31-3.09,8.33s1.01,5.66,3.09,8.35h-2.06c-2.04-2.65-3.02-5.33-3.02-8.35 s0.99-5.68,3.02-8.33H261.41z"/>
        <path fill="#F2AF30" d="M278.23,406.49c-0.57-1.73-1.77-2.71-3.39-2.71c-2.61,0-4.03,1.97-4.03,5.86c0,3.64,1.6,5.66,4.09,5.66 c2.19,0,3.46-1.36,3.48-3.87h-3.37v-1.81h5.69v7.31h-1.8l-0.11-1.59c-1.01,1.24-2.36,1.83-4.14,1.83 c-3.83,0-6.17-2.79-6.17-7.57c0-4.93,2.39-7.63,6.44-7.63c2.74,0,4.69,1.42,5.5,4.05L278.23,406.49z"/>
        <path fill="#F2AF30" d="M294.5,408.13c-0.07,0-0.11,0-0.18,0c-1.34,0-2.5,0.92-3.2,2.61v6.19h-2.12v-10.67h2.04v2.14 c0.77-1.53,1.77-2.28,3.11-2.28c0.11,0,0.22,0,0.35,0.02V408.13z"/>
        <path fill="#F2AF30" d="M310.25,411.6c0,3.52-1.8,5.54-4.82,5.54c-3.02,0-4.84-2.01-4.84-5.54s1.82-5.52,4.84-5.52 C308.46,406.08,310.25,408.07,310.25,411.6z M302.72,411.6c0,2.56,0.94,3.87,2.72,3.87c1.75,0,2.71-1.3,2.71-3.85 c0-2.57-0.94-3.87-2.71-3.87C303.66,407.75,302.72,409.03,302.72,411.6z"/>
        <path fill="#F2AF30" d="M318.66,406.26l1.77,6.03c0.07,0.18,0.22,0.96,0.53,2.26c0.15-0.85,0.37-1.55,0.53-2.08l1.82-6.21h1.88 l1.77,6.03c0.07,0.22,0.26,0.98,0.55,2.26c0.13-0.65,0.31-1.34,0.53-2.08l1.8-6.21h2.04l-3.26,10.67h-2.15l-1.62-5.39 c-0.2-0.67-0.42-1.38-0.59-2.2c-0.28,1.16-0.48,1.87-0.57,2.16l-1.66,5.43h-2.12l-3.26-10.67H318.66z"/>
        <path fill="#F2AF30" d="M341.55,402.84v3.42h2.52v1.63h-2.52v6.19c0,0.94,0.22,1.36,1.29,1.36c0.39,0,0.81-0.02,1.23-0.12v1.61 c-0.5,0.14-1.14,0.2-1.91,0.2c-1.82,0-2.67-0.71-2.67-2.26v-6.98h-1.62v-1.63h1.62v-3.42H341.55z"/>
        <path fill="#F2AF30" d="M353.4,402.17v5.5c1.23-1.04,2.39-1.55,3.57-1.55c2.06,0,3.24,1.12,3.24,3.13v7.67h-2.06v-7.14 c0-1.38-0.57-2.06-1.77-2.06c-0.94,0-1.93,0.47-2.98,1.4v7.8h-2.06v-14.76H353.4z"/>
        <path fill="#F2AF30" d="M388.72,412.76c0.77-1.16,1.14-2.26,1.36-3.22l1.93,0.41c-0.33,1.45-0.9,2.81-1.86,4.05 c0.74,0.61,1.55,0.96,2.34,1.06v2.06c-1.38-0.06-2.52-0.55-3.68-1.55c-1.36,1.1-2.82,1.65-4.38,1.65 c-2.91,0-4.71-1.75-4.71-4.27c0-1.75,0.99-3.07,3.07-4.28c-0.81-1.1-1.23-2.22-1.23-3.32c0-2.1,1.36-3.38,3.48-3.38 c2.21,0,3.5,1.16,3.5,3.03c0,1.55-0.99,2.85-2.98,4.11C386.45,410.39,387.52,411.64,388.72,412.76z M381.89,412.86 c0,1.38,1.16,2.5,2.8,2.5c0.94,0,1.86-0.39,2.63-1.1c-1.27-1.16-2.43-2.54-3.5-4.11C382.55,410.9,381.89,411.82,381.89,412.86z M386.6,404.92c0-0.98-0.59-1.55-1.51-1.55c-0.92,0-1.53,0.65-1.53,1.71c0,0.79,0.33,1.67,0.94,2.67 C385.9,406.96,386.6,405.98,386.6,404.92z"/>
        <path fill="#F2AF30" d="M414.66,402.17v14.76h-2.28v-14.76H414.66z"/>
        <path fill="#F2AF30" d="M432.46,416.93h-2.08v-7.14c0-1.38-0.53-2.06-1.69-2.06c-0.9,0-1.86,0.47-2.87,1.4v7.8h-2.06v-10.67h1.9 v1.47c1.27-1.06,2.37-1.61,3.66-1.61c1.97,0,3.13,1.12,3.13,3.13V416.93z"/>
        <path fill="#F2AF30" d="M447.14,409.56c-0.42-1.22-1.25-1.85-2.39-1.85c-1.69,0-2.65,1.34-2.65,3.89c0,2.61,0.88,3.89,2.67,3.89 c1.14,0,2.12-0.67,2.74-1.91l1.66,0.81c-0.9,1.83-2.37,2.73-4.49,2.73c-3,0-4.69-1.91-4.69-5.39c0-3.58,1.84-5.64,4.64-5.64 c2.17,0,3.66,1,4.36,2.83L447.14,409.56z"/>
        <path fill="#F2AF30" d="M465.29,411.6c0,3.52-1.79,5.54-4.82,5.54c-3.02,0-4.84-2.01-4.84-5.54s1.82-5.52,4.84-5.52 C463.5,406.08,465.29,408.07,465.29,411.6z M457.76,411.6c0,2.56,0.94,3.87,2.71,3.87c1.75,0,2.72-1.3,2.72-3.85 c0-2.57-0.94-3.87-2.72-3.87S457.76,409.03,457.76,411.6z"/>
        <path fill="#F2AF30" d="M484.89,406.08c1.82,0,2.96,1.06,2.96,2.85v8h-2.08v-7.39c0-1.24-0.5-1.83-1.58-1.83 c-0.99,0-1.95,0.47-2.85,1.38v7.84h-2.01v-7.23c0-1.36-0.44-1.99-1.58-1.99c-0.99,0-1.93,0.47-2.82,1.4v7.82h-2.06v-10.67h1.91 v1.45c1.12-1.12,2.21-1.63,3.63-1.63c1.29,0,2.21,0.57,2.69,1.69C482.31,406.61,483.43,406.08,484.89,406.08z"/>
        <path fill="#F2AF30" d="M497.51,411.94c0,0.06,0,0.12,0,0.2c0,2.16,1.05,3.36,2.87,3.36c1.2,0,2.12-0.55,2.78-1.67l1.53,0.88 c-0.94,1.59-2.45,2.42-4.42,2.42c-3.13,0-4.86-1.89-4.86-5.41c0-3.64,1.75-5.64,4.73-5.64c2.74,0,4.49,1.93,4.49,5.31 c0,0.18-0.02,0.37-0.02,0.55H497.51z M500.07,407.63c-1.51,0-2.45,1-2.54,2.83h4.97C502.46,408.64,501.52,407.63,500.07,407.63z"/>
        <path fill="#F2AF30" d="M513.5,401.97c2.04,2.65,3.02,5.31,3.02,8.33c0,2.99-0.99,5.7-3.02,8.35h-2.04 c2.08-2.71,3.09-5.35,3.09-8.35c0-3.01-1.01-5.62-3.09-8.33H513.5z"/>
        <path fill="#F2AF30" d="M546.46,402.17V404h-7.36v4.27h5.5v1.85h-5.5v6.8h-2.28v-14.76H546.46z"/>
        <path fill="#F2AF30" d="M554.76,406.26v7.17c0,1.4,0.48,2.06,1.69,2.06c0.9,0,1.86-0.47,2.85-1.4v-7.82h2.08v10.67h-1.93v-1.45 c-1.27,1.06-2.39,1.61-3.68,1.61c-1.95,0-3.09-1.12-3.09-3.13v-7.69H554.76z"/>
        <path fill="#F2AF30" d="M578.61,416.93h-2.08v-7.14c0-1.38-0.53-2.06-1.69-2.06c-0.9,0-1.86,0.47-2.87,1.4v7.8h-2.06v-10.67h1.9 v1.47c1.27-1.06,2.37-1.61,3.66-1.61c1.97,0,3.13,1.12,3.13,3.13V416.93z"/>
        <path fill="#F2AF30" d="M595.65,402.17v11.81c0,1.2,0.07,2.18,0.15,2.95h-1.62l-0.35-1.26c-0.81,0.98-1.82,1.45-3.13,1.45 c-2.72,0-4.51-2.08-4.51-5.54c0-3.48,1.77-5.48,4.55-5.48c1.23,0,2.17,0.43,2.85,1.3v-5.23H595.65z M591.1,407.69 c-1.73,0-2.78,1.34-2.78,3.85c0,2.63,0.99,3.95,2.82,3.95c0.94,0,1.73-0.43,2.45-1.3v-5.19 C592.83,408.12,592.02,407.69,591.1,407.69z"/>
      </g>
      <g>
        <path fill="#fff" d="M283.42,383.56c-2.76,1.55-5.84,2.32-9.25,2.32s-6.5-0.77-9.26-2.32c-2.77-1.55-4.93-3.67-6.49-6.38 s-2.34-5.74-2.34-9.08s0.78-6.38,2.34-9.08c1.56-2.71,3.73-4.84,6.49-6.38s5.85-2.32,9.26-2.32s6.49,0.77,9.25,2.32 c2.76,1.55,4.91,3.67,6.47,6.38c1.55,2.71,2.33,5.74,2.33,9.08s-0.78,6.38-2.33,9.08C288.34,379.88,286.18,382.01,283.42,383.56z M274.17,380.45c3.54,0,6.48-1.18,8.82-3.53c2.34-2.35,3.51-5.3,3.51-8.83s-1.17-6.48-3.51-8.83 c-2.34-2.35-5.28-3.53-8.82-3.53c-2.33,0-4.43,0.54-6.32,1.61c-1.89,1.08-3.37,2.56-4.44,4.45s-1.6,3.99-1.6,6.3 c0,2.31,0.53,4.41,1.6,6.3s2.55,3.37,4.44,4.45C269.74,379.91,271.84,380.45,274.17,380.45z"/>
        <path fill="#fff" d="M312.21,358.14c2.6,0,4.94,0.6,7.03,1.79c2.09,1.2,3.72,2.85,4.89,4.97c1.17,2.12,1.76,4.49,1.76,7.1 c0,3.97-1.29,7.28-3.88,9.92c-2.59,2.65-5.85,3.97-9.79,3.97c-3.4,0-6.33-1.07-8.8-3.2v12h-5.43v-35.91h3.66l1.03,3.25 c1.21-1.24,2.63-2.2,4.27-2.88C308.57,358.48,310.33,358.14,312.21,358.14z M305.57,378.2c1.65,1.66,3.72,2.49,6.2,2.49 s4.54-0.83,6.17-2.47c1.63-1.65,2.44-3.72,2.44-6.2s-0.81-4.55-2.44-6.2c-1.63-1.65-3.68-2.47-6.17-2.47s-4.55,0.83-6.2,2.49 c-1.65,1.66-2.47,3.72-2.47,6.19S303.92,376.54,305.57,378.2z"/>
        <path fill="#fff" d="M345.94,358.14c2.6,0,4.94,0.6,7.03,1.79c2.09,1.2,3.72,2.85,4.89,4.97c1.17,2.12,1.76,4.49,1.76,7.1 c0,3.97-1.29,7.28-3.88,9.92c-2.59,2.65-5.85,3.97-9.79,3.97c-3.4,0-6.33-1.07-8.8-3.2v12h-5.43v-35.91h3.66l1.03,3.25 c1.21-1.24,2.63-2.2,4.27-2.88C342.3,358.48,344.06,358.14,345.94,358.14z M339.31,378.2c1.65,1.66,3.72,2.49,6.2,2.49 s4.54-0.83,6.17-2.47c1.63-1.65,2.44-3.72,2.44-6.2s-0.81-4.55-2.44-6.2c-1.63-1.65-3.68-2.47-6.17-2.47s-4.55,0.83-6.2,2.49 c-1.65,1.66-2.47,3.72-2.47,6.19S337.66,376.54,339.31,378.2z"/>
        <path fill="#fff" d="M384.86,384.07c-2.15,1.2-4.56,1.8-7.22,1.8c-2.66,0-5.07-0.6-7.22-1.8s-3.84-2.86-5.07-4.97 c-1.23-2.11-1.84-4.47-1.84-7.09c0-2.63,0.61-5,1.84-7.11c1.23-2.11,2.92-3.77,5.07-4.96s4.56-1.79,7.22-1.79 c2.66,0,5.07,0.6,7.22,1.79c2.15,1.2,3.84,2.85,5.07,4.97c1.23,2.12,1.84,4.49,1.84,7.1s-0.61,4.98-1.84,7.09 C388.71,381.21,387.02,382.87,384.86,384.07z M371.46,378.25c1.62,1.63,3.68,2.44,6.18,2.44c2.5,0,4.56-0.81,6.18-2.44 c1.62-1.63,2.43-3.71,2.43-6.24s-0.81-4.61-2.43-6.24c-1.62-1.63-3.68-2.44-6.18-2.44c-2.5,0-4.56,0.81-6.18,2.44 c-1.62,1.63-2.43,3.71-2.43,6.24S369.85,376.62,371.46,378.25z"/>
        <path fill="#fff" d="M410.25,358.64h2.34v5.14h-2.87c-2.23,0-3.91,0.62-5.04,1.87s-1.7,3.07-1.7,5.47v14.11h-5.43v-26.44h3.68 l0.91,3.61C404.03,359.9,406.73,358.64,410.25,358.64z"/>
        <path fill="#fff" d="M428.66,380.3h3.01v4.92h-4.04c-2.9,0-5.19-0.84-6.86-2.52c-1.67-1.68-2.51-3.98-2.51-6.9v-12.36h-4.73 v-1.05l9.2-9.78h0.93v6.17h7.87v4.66h-7.82v11.93c0,1.58,0.43,2.79,1.28,3.65S427.07,380.3,428.66,380.3z"/>
        <path fill="#fff" d="M457.28,382.65c-2.18,2.15-5.09,3.23-8.73,3.23s-6.55-1.08-8.74-3.23s-3.29-5.01-3.29-8.58v-15.28h5.43 v14.51c0,2.29,0.59,4.1,1.77,5.42c1.18,1.31,2.79,1.97,4.83,1.97s3.65-0.66,4.82-1.98c1.17-1.32,1.76-3.12,1.76-5.4v-14.51h5.43 v15.28C460.55,377.63,459.46,380.5,457.28,382.65z"/>
        <path fill="#fff" d="M481.86,358.19c3.06,0,5.5,1.03,7.32,3.08c1.82,2.06,2.73,4.73,2.73,8.03v15.92h-5.43v-14.82 c0-2.41-0.51-4.23-1.54-5.48c-1.03-1.24-2.54-1.86-4.53-1.86c-2.07,0-3.77,0.75-5.1,2.26c-1.33,1.51-2,3.42-2,5.75v14.15h-5.43 v-26.44h3.78l1.08,3.68c1.02-1.35,2.32-2.41,3.9-3.16C478.2,358.56,479.94,358.19,481.86,358.19z"/>
        <path fill="#fff" d="M499.19,354.7v-5.62h5.62v5.62H499.19z M499.29,385.23v-26.44h5.43v26.44H499.29z"/>
        <path fill="#fff" d="M524.22,380.3h3.01v4.92h-4.04c-2.9,0-5.19-0.84-6.86-2.52c-1.67-1.68-2.51-3.98-2.51-6.9v-12.36h-4.73 v-1.05l9.2-9.78h0.93v6.17h7.87v4.66h-7.82v11.93c0,1.58,0.43,2.79,1.28,3.65S522.63,380.3,524.22,380.3z"/>
        <path fill="#fff" d="M532.4,354.7v-5.62h5.62v5.62H532.4z M532.49,385.23v-26.44h5.43v26.44H532.49z"/>
        <path fill="#fff" d="M570.77,372.08c0,0.51-0.04,1.1-0.12,1.77h-21.47c0.33,2.14,1.23,3.83,2.68,5.07s3.26,1.86,5.43,1.86 c1.56,0,2.96-0.34,4.2-1.03c1.23-0.69,2.2-1.63,2.9-2.84h5.74c-1.05,2.79-2.72,4.98-5,6.57s-4.89,2.39-7.84,2.39 c-3.86,0-7.08-1.33-9.68-3.98c-2.6-2.65-3.9-5.95-3.9-9.89c0-2.6,0.59-4.96,1.77-7.08c1.18-2.12,2.8-3.78,4.88-4.98 c2.07-1.2,4.38-1.8,6.93-1.8c2.63,0,4.98,0.63,7.05,1.88c2.07,1.25,3.66,2.93,4.77,5.04 C570.21,367.18,570.77,369.51,570.77,372.08z M557.28,363.04c-2.02,0-3.75,0.57-5.16,1.72c-1.42,1.15-2.35,2.71-2.8,4.69h15.99 c-0.49-2.01-1.45-3.58-2.88-4.71S559.29,363.04,557.28,363.04z"/>
        <path fill="#fff" d="M593.1,383.57c-1.96,1.54-4.55,2.31-7.77,2.31s-5.81-0.82-7.76-2.46c-1.95-1.64-2.97-3.83-3.05-6.57h5.31 c0.06,1.35,0.62,2.4,1.66,3.14s2.39,1.11,4.03,1.11c1.5,0,2.73-0.31,3.71-0.92c0.97-0.61,1.46-1.45,1.46-2.52 c0-0.48-0.12-0.91-0.35-1.29c-0.23-0.38-0.51-0.69-0.84-0.92c-0.33-0.23-0.79-0.44-1.39-0.63s-1.13-0.33-1.6-0.43 c-0.47-0.1-1.1-0.22-1.9-0.36c-0.81-0.14-1.46-0.26-1.94-0.36c-0.48-0.1-1.1-0.25-1.87-0.47c-0.76-0.22-1.38-0.44-1.85-0.68 c-0.47-0.24-0.98-0.56-1.54-0.96c-0.56-0.4-0.99-0.84-1.3-1.33c-0.31-0.49-0.57-1.08-0.79-1.78c-0.22-0.7-0.32-1.47-0.32-2.32 c0-2.37,0.94-4.3,2.83-5.77c1.89-1.47,4.36-2.21,7.42-2.21c3.06,0,5.52,0.77,7.38,2.31s2.81,3.59,2.86,6.16h-5.14 c-0.05-1.24-0.53-2.2-1.43-2.86c-0.91-0.66-2.17-0.99-3.78-0.99c-1.5,0-2.69,0.29-3.56,0.87c-0.88,0.58-1.32,1.36-1.32,2.33 c0,0.38,0.06,0.72,0.19,1.02c0.13,0.29,0.35,0.55,0.66,0.78c0.31,0.22,0.61,0.41,0.88,0.55c0.28,0.14,0.69,0.28,1.24,0.41 c0.55,0.13,1,0.23,1.35,0.3c0.35,0.07,0.87,0.16,1.55,0.28c2.58,0.43,4.44,0.88,5.57,1.36c2.71,1.16,4.14,3.21,4.3,6.14 c0.02,0.19,0.02,0.4,0.02,0.62C596.04,379.98,595.06,382.03,593.1,383.57z"/>
      </g>
      <g>
        <rect x="256.8" y="393.04" fill="#0086CC" width="32.85" height="0.94"/>
        <rect x="345.71" y="393.04" fill="#0086CC" width="250.2" height="0.94"/>
      </g>
    </g>
    <g>
      <path fill="#fff" d="M147.62,377.41c-2.95-5.22-4.43-11.02-4.43-17.41c0-1.33,0.1-2.62,0.23-3.89c-2.87-3.8-4.65-8.24-5.25-13.22 c-0.21-1.51-0.32-3.09-0.32-4.69c0-4.01,0.57-7.7,1.68-11.07c-2.12,2.38-4.08,4.92-5.72,7.76c-3.29,5.7-5.31,11.91-6.1,18.63 h-14.06v12.95h14.06c0.78,6.72,2.81,12.94,6.1,18.64c4.32,7.49,10.3,13.37,17.94,17.64c3.52,1.97,7.25,3.47,11.15,4.53v-16.11 c-1.02-0.45-2.04-0.91-3.02-1.46C154.65,386.73,150.57,382.63,147.62,377.41z"/>
      <path fill="#F2AF30" d="M210.4,369.23c-0.25-0.52-0.52-1.03-0.81-1.55c-5.42-9.52-16.35-12.62-26.25-15.25 c-4.94-1.31-9.95-2.46-14.72-4.32c-2.94-1.15-5.9-2.69-7.69-5.3c-3.28-4.78-1.27-11.15,3.34-14.17c0.62-0.41,1.29-0.74,1.97-1.06 c3.49-1.12,7.17-1.74,11.11-1.74c2.23,0,4.35,0.19,6.41,0.53v-30h-12.95v14.82c-0.04,0-0.08,0.01-0.12,0.01 c-0.14,0.02-0.26,0.05-0.39,0.07c-1.01,0.12-1.96,0.32-2.93,0.5c-0.61,0.11-1.27,0.18-1.86,0.32c-0.05,0.01-0.09,0.02-0.14,0.03 c-0.07,0.02-0.14,0.04-0.22,0.05c-15.73,3.83-25.82,19.72-19.8,35.42c2.03,5.31,6.07,9.44,12.13,12.39 c7.74,3.77,17.04,5.37,25.34,7.73c3.41,0.97,6.92,1.99,9.7,4.19c3.96,3.13,4.85,8.47,2.9,13c-2.41,5.59-8.35,8.35-14.08,9.07 c-0.57,0.07-1.18,0.08-1.77,0.11c-0.72,0.04-1.43,0.09-2.16,0.09c-0.05,0-0.09-0.01-0.14,0c-2.24,0-4.38-0.25-6.47-0.62v30.1 h12.95c0,0,0-14.83,0.04-14.84c0.6-0.07,1.2-0.15,1.79-0.24c0.08-0.01,0.17-0.03,0.25-0.04 C203.46,405.91,218.69,386.46,210.4,369.23z"/>
      <path fill="#fff" d="M226.86,353.53c-0.78-6.72-2.8-12.93-6.07-18.63c-4.3-7.49-10.25-13.37-17.87-17.64 c-3.55-1.99-7.31-3.5-11.25-4.56v16c3.7,1.62,7.06,3.89,10.06,6.9c6.48,6.5,9.71,14.64,9.71,24.41c0,0.04,0,0.07,0,0.11 c3.46,4.02,5.65,8.8,6.47,14.36c0.26,1.75,0.4,3.59,0.4,5.47c0,4.02-0.59,7.78-1.73,11.26c1.53-1.91,2.97-3.91,4.22-6.09 c3.27-5.7,5.29-11.91,6.07-18.64h14.06v-12.95H226.86z"/>
    </g>
  </g>
</svg>
