<svg xmlns="http://www.w3.org/2000/svg" viewBox="106 288 142 142">
  <path fill="#fff" d="M147.62,377.41c-2.95-5.22-4.43-11.02-4.43-17.41c0-1.33,0.1-2.62,0.23-3.89c-2.87-3.8-4.65-8.24-5.25-13.22 c-0.21-1.51-0.32-3.09-0.32-4.69c0-4.01,0.57-7.7,1.68-11.07c-2.12,2.38-4.08,4.92-5.72,7.76c-3.29,5.7-5.31,11.91-6.1,18.63 h-14.06v12.95h14.06c0.78,6.72,2.81,12.94,6.1,18.64c4.32,7.49,10.3,13.37,17.94,17.64c3.52,1.97,7.25,3.47,11.15,4.53v-16.11 c-1.02-0.45-2.04-0.91-3.02-1.46C154.65,386.73,150.57,382.63,147.62,377.41z"/>
  <path fill="#F2AF30" d="M210.4,369.23c-0.25-0.52-0.52-1.03-0.81-1.55c-5.42-9.52-16.35-12.62-26.25-15.25 c-4.94-1.31-9.95-2.46-14.72-4.32c-2.94-1.15-5.9-2.69-7.69-5.3c-3.28-4.78-1.27-11.15,3.34-14.17c0.62-0.41,1.29-0.74,1.97-1.06 c3.49-1.12,7.17-1.74,11.11-1.74c2.23,0,4.35,0.19,6.41,0.53v-30h-12.95v14.82c-0.04,0-0.08,0.01-0.12,0.01 c-0.14,0.02-0.26,0.05-0.39,0.07c-1.01,0.12-1.96,0.32-2.93,0.5c-0.61,0.11-1.27,0.18-1.86,0.32c-0.05,0.01-0.09,0.02-0.14,0.03 c-0.07,0.02-0.14,0.04-0.22,0.05c-15.73,3.83-25.82,19.72-19.8,35.42c2.03,5.31,6.07,9.44,12.13,12.39 c7.74,3.77,17.04,5.37,25.34,7.73c3.41,0.97,6.92,1.99,9.7,4.19c3.96,3.13,4.85,8.47,2.9,13c-2.41,5.59-8.35,8.35-14.08,9.07 c-0.57,0.07-1.18,0.08-1.77,0.11c-0.72,0.04-1.43,0.09-2.16,0.09c-0.05,0-0.09-0.01-0.14,0c-2.24,0-4.38-0.25-6.47-0.62v30.1 h12.95c0,0,0-14.83,0.04-14.84c0.6-0.07,1.2-0.15,1.79-0.24c0.08-0.01,0.17-0.03,0.25-0.04 C203.46,405.91,218.69,386.46,210.4,369.23z"/>
  <path fill="#fff" d="M226.86,353.53c-0.78-6.72-2.8-12.93-6.07-18.63c-4.3-7.49-10.25-13.37-17.87-17.64 c-3.55-1.99-7.31-3.5-11.25-4.56v16c3.7,1.62,7.06,3.89,10.06,6.9c6.48,6.5,9.71,14.64,9.71,24.41c0,0.04,0,0.07,0,0.11 c3.46,4.02,5.65,8.8,6.47,14.36c0.26,1.75,0.4,3.59,0.4,5.47c0,4.02-0.59,7.78-1.73,11.26c1.53-1.91,2.97-3.91,4.22-6.09 c3.27-5.7,5.29-11.91,6.07-18.64h14.06v-12.95H226.86z"/>
</svg>
